<svg width="18" height="19" viewBox="0 0 18 19" fill="none" xmlns="http://www.w3.org/2000/svg">
<path d="M9.30993 13.9106L12.8565 16.1573C13.3099 16.4441 13.8724 16.0172 13.7379 15.4879L12.7136 11.4576C12.6847 11.3453 12.688 11.2271 12.7232 11.1167C12.7585 11.0062 12.8242 10.908 12.9127 10.8332L16.0931 8.18663C16.5105 7.839 16.2956 7.14544 15.7584 7.11056L11.6055 6.84056C11.4937 6.83263 11.3864 6.7931 11.2962 6.72658C11.206 6.66006 11.1365 6.56928 11.0959 6.46481L9.54674 2.56444C9.50456 2.45359 9.42968 2.35819 9.33204 2.29087C9.2344 2.22355 9.1186 2.1875 8.99999 2.1875C8.88139 2.1875 8.76559 2.22355 8.66795 2.29087C8.5703 2.35819 8.49543 2.45359 8.45324 2.56444L6.90412 6.46481C6.86357 6.56939 6.79413 6.66029 6.70391 6.72691C6.61368 6.79354 6.50637 6.83315 6.39449 6.84113L2.24156 7.11113C1.70493 7.14544 1.48893 7.839 1.90687 8.18663L5.08724 10.8338C5.17573 10.9085 5.24135 11.0067 5.27657 11.117C5.31179 11.2273 5.31519 11.3454 5.28637 11.4576L4.33687 15.1954C4.17543 15.8304 4.85099 16.3429 5.39437 15.9981L8.69062 13.9106C8.78326 13.8517 8.89077 13.8204 9.00056 13.8204C9.11034 13.8204 9.21785 13.8517 9.31049 13.9106H9.30993Z" fill="#FF8A00"/>
</svg>
